<svg xmlns="http://www.w3.org/2000/svg" viewBox="0 0 323.88 323.88"><defs><style>.cls-1{fill:#0747a6;}.cls-2{fill:#fff;}.cls-3{fill:#fdbd29;}</style></defs><title>icon</title><g id="Layer_2" data-name="Layer 2"><g id="Layer_1-2" data-name="Layer 1"><circle class="cls-1" cx="161.94" cy="161.94" r="161.94"/><path class="cls-2" d="M91.67,16a160.55,160.55,0,0,1,24.69-9.5V126.13l3.84-4.79C138.13,98.93,160.74,84.08,189.44,80c67.73-9.6,116.46,33.63,128.16,81.45C332,220.43,306,273,255.22,296.4c-36.77,17-94,14.32-129.15-20.22a110.09,110.09,0,0,1-33-66.48,214.14,214.14,0,0,1-1.45-26.2c-.09-61.35,0-103.49,0-164.84ZM296.08,192.14c.7-49.57-41.13-89.21-87.83-90.18-50.66-1-91.5,41.34-92.07,88.88a90.07,90.07,0,0,0,89,91.52C254.25,282.92,296.87,241.87,296.08,192.14Z"/><path class="cls-3" d="M56.66,62.81c.88,12-10.77,24-24.22,23.94C20.62,86.67,8.19,75.93,8.5,61.92c.25-11.06,10.42-23.81,24.82-23.51C44.83,38.65,57.62,49.22,56.66,62.81Z"/><polygon class="cls-2" points="211.58 316.13 210.03 316.62 210.03 7.25 211.58 7.75 211.58 316.13"/><polygon class="cls-2" points="2.68 191.46 2.41 189.92 321.23 189.92 321.23 191.46 2.68 191.46"/><path class="cls-2" d="M21.45,92.77V242.6A162.05,162.05,0,0,0,46.2,275.22V92.33C37.86,96.83,29.68,97,21.45,92.77Z"/></g></g></svg>