<?xml version="1.0" encoding="utf-8"?>
<!-- Generator: Adobe Illustrator 23.0.1, SVG Export Plug-In . SVG Version: 6.00 Build 0)  -->
<svg version="1.1" id="Layer_1" xmlns="http://www.w3.org/2000/svg" xmlns:xlink="http://www.w3.org/1999/xlink" x="0px" y="0px"
	 viewBox="0 0 71 70.6" style="enable-background:new 0 0 71 70.6;" xml:space="preserve">
<style type="text/css">
	.st0{fill:#424A60;}
	.st1{fill:#43B05C;}
	.st2{fill:#7383BF;}
	.st3{fill:#57D8AB;}
	.st4{fill:#D75A4A;}
	.st5{fill:#EBBA16;}
	.st6{fill:#4B6DAA;}
</style>
<g>
	<path class="st0" d="M34.5,35l15-15l1.4,1.4l-15,15L34.5,35z"/>
	<circle class="st1" cx="52.2" cy="19.7" r="5"/>
</g>
<g>
	<path class="st0" d="M34.5,35.4h2v18h-2V35.4z"/>
	<circle class="st2" cx="35.5" cy="55.4" r="5"/>
</g>
<g>
	<path class="st0" d="M14.4,55l20-20l1.4,1.4l-20,20L14.4,55z"/>
	<circle class="st3" cx="14.2" cy="55.7" r="5"/>
</g>
<g>
	<path class="st0" d="M24,25.3l1.4-1.4l11,11L35,36.3L24,25.3z"/>
	<circle class="st4" cx="23.7" cy="23.6" r="3"/>
</g>
<g>
	<path class="st0" d="M34.8,36.4l1.4-1.4l15,15l-1.4,1.4L34.8,36.4z"/>
	<circle class="st5" cx="49.5" cy="49.7" r="3"/>
</g>
<circle class="st6" cx="35.5" cy="35.4" r="7"/>
</svg>
