<svg xmlns="http://www.w3.org/2000/svg" viewBox="0 0 422 433.93"><g data-name="Layer 2"><g data-name="Layer 3"><path d="M418.48 187.71c-.66-5.87-7.51-10.29-13.43-10.29a46.13 46.13 0 0 1-31.57-80.28 11.6 11.6 0 0 0 1.27-15.75A206.46 206.46 0 0 0 341.66 48a11.64 11.64 0 0 0-15.88 1.29C313.33 63 291 68.16 273.68 61a46.39 46.39 0 0 1-28.21-45.4 11.6 11.6 0 0 0-10.26-12.21 208.08 208.08 0 0 0-47-.12 11.63 11.63 0 0 0-10.34 12 46.47 46.47 0 0 1-28.61 44.57C132.19 66.77 110 61.68 97.55 48a11.64 11.64 0 0 0-15.76-1.32A207.92 207.92 0 0 0 48 80.11 11.62 11.62 0 0 0 49.24 96a46.29 46.29 0 0 1 11.68 52.1c-7.21 17.18-25 28.24-45.45 28.24A11.37 11.37 0 0 0 3.4 186.6a209 209 0 0 0-.09 47.5C4 240 11 244.38 17 244.38c18.19-.46 35.65 10.79 43 28.62a46.48 46.48 0 0 1-11.68 51.66A11.61 11.61 0 0 0 47 340.4a207.73 207.73 0 0 0 33 33.43 11.62 11.62 0 0 0 16-1.26c12.49-13.82 34.86-18.93 52.07-11.71a46.34 46.34 0 0 1 28.27 45.34 11.58 11.58 0 0 0 10.25 12.2 207.63 207.63 0 0 0 47 .13 11.64 11.64 0 0 0 10.34-12A46.44 46.44 0 0 1 272.5 362c17.19-7 39.31-1.88 51.74 11.77a11.67 11.67 0 0 0 15.76 1.34 207.89 207.89 0 0 0 33.8-33.42 11.61 11.61 0 0 0-1.25-15.88 46.27 46.27 0 0 1-11.7-52.1 46.74 46.74 0 0 1 42.73-28.32l2.58.07a11.63 11.63 0 0 0 12.23-10.25 207.85 207.85 0 0 0 .09-47.5zM210.9 336.65A125.75 125.75 0 1 1 336.65 210.9 125.75 125.75 0 0 1 210.9 336.65z" fill="#2e3192" stroke="#fff" stroke-miterlimit="10" stroke-width="4"/><path d="M369.94 429.93a24.46 24.46 0 0 1-17.88-7.67L247.64 312.37a102.29 102.29 0 0 1-35.79 6.4h-2a103 103 0 0 1-96.92-131.87 15.17 15.17 0 0 1 14.25-11.12h.27a15.28 15.28 0 0 1 10.88 5c.33.34 33 34.09 44.82 46.34a3.5 3.5 0 0 0 2.47 1.15L191 227v.83c11.58-1 23.18-2.58 28.47-4l.13-.13c1.73-5.86 4.08-19.59 5.5-32.29v-.2l.13-.76a5.75 5.75 0 0 0-.08-2c-11.51-12-45.15-47.21-45.49-47.56a15 15 0 0 1-3.85-14.63 15.26 15.26 0 0 1 10.77-10.43 103 103 0 0 1 25.21-3.13h2a103.1 103.1 0 0 1 93.14 142.55L411.22 365.1a24.79 24.79 0 0 1-.52 34.5l-23.41 23.19a24.53 24.53 0 0 1-17.35 7.14z" fill="#fdbd29"/><path d="M211.8 116.78h1.92a99.09 99.09 0 0 1 88.5 139.39l106.1 111.67a20.65 20.65 0 0 1-.44 28.9L384.47 420a20.65 20.65 0 0 1-29.47-.5L248.7 307.68a98.68 98.68 0 0 1-36.85 7.09h-1.95A99 99 0 0 1 116.78 188a11.1 11.1 0 0 1 10.4-8.23h.2a11.41 11.41 0 0 1 8.08 3.79s32.89 33.94 44.81 46.33a7.4 7.4 0 0 0 5.32 2.38h.56l.58-.14v.07c13.06-.92 28.76-2.91 34.79-4.72l.79-.78.76-.7c2-5.89 4.56-21.25 6-34.07l.13-.76c.19-1 .25-4-1-5.22-11.45-11.9-45.68-47.74-45.68-47.74a11 11 0 0 1-2.9-10.77 11.26 11.26 0 0 1 7.91-7.66 99.47 99.47 0 0 1 24.24-3m0-8A107.08 107.08 0 0 0 185.6 112a18.9 18.9 0 0 0-8.81 31.72c.31.33 32.06 33.58 44.44 46.46l-.08.45v.39a271.25 271.25 0 0 1-4.79 29.48c-4.81 1-12.75 2.1-21.08 2.92l.09-1.52-9.5 2.2c-12-12.43-44.29-45.79-44.62-46.13a19.56 19.56 0 0 0-13.67-6.21h-.35a19.17 19.17 0 0 0-18.08 14 107 107 0 0 0 100.65 137h2.1a106.52 106.52 0 0 0 34.64-5.76l102.62 108a28.79 28.79 0 0 0 20.78 8.92 28.47 28.47 0 0 0 20.16-8.3l23.41-23.19a28.65 28.65 0 0 0 .61-40.1L311.61 254.46a107 107 0 0 0-97.73-145.66h-2.08z" fill="#0747a6"/></g></g></svg>