<svg
  viewBox="0 0 712.08 893.97"
  xmlns="http://www.w3.org/2000/svg"
  xmlns:xlink="http://www.w3.org/1999/xlink"
>
  <style>
    .st1 {
      fill: #fff;
    }
    .st2 {
      fill: #fdbd29;
    }
    .st26 {
      fill: #2e3192;
    }
    .st28 {
      fill: #272d7a;
    }
    .st29 {
      fill: #8cc63f;
    }
    .st30,
    .st31 {
      fill: none;
      stroke: #fff;
      stroke-width: 3;
      stroke-miterlimit: 10;
    }
    .st31 {
      stroke: #2a272d;
      stroke-width: 5;
    }
    .st32 {
      fill: #f2c09e;
    }
    .st34 {
      fill: #fcc9a7;
    }
    .st35 {
      fill: #1f252a;
    }
    .st36 {
      fill: #ffeee3;
    }
    .st38 {
      fill: #1c2226;
    }
    .st39 {
      fill: #4d4d4d;
    }
    .st40 {
      fill: #2a272d;
    }
    .st41 {
      fill: #ff8c00;
    }
    .st42 {
      fill: none;
      stroke: #ff8c00;
      stroke-width: 0.7847;
      stroke-linecap: round;
      stroke-linejoin: round;
      stroke-miterlimit: 10;
    }
    .st45 {
      fill: #ccc;
    }
    .st48 {
      fill: #39b54a;
    }
    .st49 {
      fill: #e6e6e6;
    }
  </style>
  <path
    class="st2"
    d="M236.91 205.02c1.9 26.18-23.44 52.3-52.72 52.1-25.71-.18-52.77-23.56-52.09-54.04.54-24.08 22.68-51.82 54.02-51.16 25.03.53 52.88 23.53 50.79 53.1z"
  />
  <path
    class="st26"
    d="M629.5 851.6c0 .46-.22.92-.65 1.37-3.23 3.43-18.56 6.61-42.85 9.31-.05.01-.11.01-.18.02-3.67.41-7.54.8-11.61 1.19-47.58 4.5-121.54 7.39-204.61 7.39s-157.03-2.89-204.61-7.39c-.26-.02-.52-.05-.78-.07-3.86-.37-7.53-.75-11.02-1.14-.21-.02-.42-.05-.62-.07-27.1-3.04-42.88-6.69-42.88-10.61 0-10.65 116.37-19.28 259.91-19.28 44.16 0 85.75.82 122.16 2.26 76.86 3.04 130.69 8.86 137.09 15.66.43.45.65.91.65 1.36z"
  />
  <path
    d="M628.5 596.98c0 6.19-.22 12.34-.65 18.42-3.23 46.24-18.56 89.14-42.85 125.56-.05.09-.11.18-.18.27-3.01 4.51-6.15 8.9-9.43 13.2-.71.95-1.44 1.89-2.18 2.83a260.697 260.697 0 0 1-33.73 35.54c-45.68 39.91-105.45 64.08-170.88 64.08s-125.2-24.17-170.88-64.08a260.697 260.697 0 0 1-33.73-35.54c-.26-.33-.52-.67-.78-1a247.73 247.73 0 0 1-7.62-10.34c-1.16-1.64-2.29-3.29-3.4-4.96-.21-.31-.42-.62-.62-.94-27.1-41.03-42.88-90.19-42.88-143.04 0-143.55 116.37-259.91 259.91-259.91 44.16 0 85.75 11.01 122.16 30.44 76.86 41 130.69 119.49 137.09 211.05.43 6.08.65 12.23.65 18.42z"
    fill="#29abe2"
  />
  <path class="st26" d="M491.13 22.19h142.02v734.07H491.13z" />
  <path
    class="st28"
    d="M575.39 41.99h37.21v612.87h-37.21zM515.39 41.99h37.21v612.87h-37.21z"
  />
  <path class="st29" d="M212.83 270.06h182.93v470.91H212.83z" />
  <path class="st30" d="M298.86 270.06v577.1M633.47 584.28H38.98" />
  <path class="st31" d="M276.93 575.36v165.92" />
  <path
    class="st1"
    d="M344.41 631.33s-21.89-4.97-25.2 9.28c-2.84 12.24 26.94 11.76 26.94 11.76l65.49.4s24.67 2.84 36.87-25.61c12.19-28.45 23.94-102.97 23.94-102.97s1.76-10.25-6.77-11.74c-10.04-1.75-12.01 19.93-12.01 19.93s-15.18 91.99-37.2 96.48c-3.39.69-6.1 3.26-9.56 3.22l-62.5-.75z"
  />
  <path
    class="st32"
    d="M302.05 551.07l-20.63-2.1c-1.67-.17-3.31.55-4.32 1.89l-12.14 17.09 9.81.79 5.83-8.34s15.84 4.52 21.87.72l-.42-10.05z"
  />
  <path
    class="st2"
    d="M387.18 497.22l-29.32 50.4-57.45-.07-.63 18.88 60.52 4.66c7.99.62 15.73-2.97 20.44-9.46l29.23-48.59-22.79-15.82z"
  />
  <path fill="#f7e5da" d="M300.42 547.55l-.63 18.87 6.41.5.64-19.36z" />
  <path class="st34" d="M314.55 705.79l-3.25 22.7-16.34-1.01 2.36-23.45z" />
  <path
    class="st35"
    d="M314.96 726.19c-.36-1.06-1.63-1.5-2.54-.85-1.79 1.28-4.96 2.78-9.52 2.21-4.73-.6-6.4-3.12-6.99-4.9-.31-.94-1.31-1.45-2.22-1.09l-29.44 11.55a7.21 7.21 0 0 0-3.99 3.85c-.72 1.66.48 3.51 2.28 3.54l49.87.73c1.96.03 3.55-1.59 3.47-3.55l-.36-9.63c-.01-.16-.03-.32-.09-.47l-.47-1.39z"
  />
  <path
    class="st36"
    d="M386.01 489.56l-6.29 6.24c-.46.63-.98 2.28.14 3.2l1.47 1.7 5.17-4.91-.49-6.23z"
  />
  <path
    class="st34"
    d="M392.66 499.3l1.6-.36c5.29-1.2 8.6-6.45 7.41-11.74l-7.94-35.14-19.06 4.31 9.46 39.49c.98 4.35 4.18 4.42 8.53 3.44z"
  />
  <path
    class="st34"
    d="M360.47 459.58c2.59 11.44 13.95 18.62 25.39 16.03s18.62-13.95 16.03-25.39c-2.58-11.44-13.95-18.62-25.39-16.03-11.44 2.58-18.61 13.95-16.03 25.39z"
  />
  <path
    class="st34"
    d="M380.61 485.86c5.43-1.23 8.84-6.63 7.61-12.06l-4.48-19.83-23.34 5.28 3.65 16.16c1.69 7.46 9.1 12.14 16.56 10.45z"
  />
  <path
    class="st34"
    d="M362.12 464.07l-3.02 7.69c-.4 1.23.74 2.38 2.06 2.08l5.47-.19-4.51-9.58z"
  />
  <defs>
    <path
      id="d"
      d="M360.47 459.58c2.59 11.44 13.95 18.62 25.39 16.03s18.62-13.95 16.03-25.39c-2.58-11.44-13.95-18.62-25.39-16.03-11.44 2.58-18.61 13.95-16.03 25.39z"
    />
  </defs>
  <clipPath id="c">
    <use xlink:href="#d" />
  </clipPath>
  <path
    d="M381.18 464.37s-7.35-1.24-5.89-12.69c0 0-14.48 5.06-18.84.65 0 0 5.9-31.99 31.76-24.69 25.87 7.29 21.23 35.97 21.23 35.97l-17.79 9.76-10.47-9z"
    clip-path="url(#c)"
    fill="#1C2226"
  />
  <path
    class="st34"
    d="M380.03 464.58a5.84 5.84 0 0 0 6.98 4.41c3.14-.71 5.11-3.84 4.4-6.98s-3.83-5.12-6.98-4.4c-3.14.7-5.11 3.83-4.4 6.97z"
  />
  <path
    class="st38"
    d="M396.97 464.15l1.74 9.98s-10.15 4.82-12.37-5l6.61-.28 4.02-4.7zM375.29 451.67s-20.17 9.14-24.27-3.48c-3.28-10.08 4.03-14.37 12.31-10.9 3.58 1.5 6.01-.59 9.39-1.87l2.57 16.25z"
  />
  <path
    class="st39"
    d="M379.11 503.89s2.29-7.95 5.5-10.14 18.63-6.67 18.63-6.67 18.22 10.29 24.95 35.48c5.25 19.63 3.63 65.78 3.63 65.78l-58.38 4.8c2.93-34.08-2.66-61.2 5.67-89.25z"
  />
  <path
    class="st36"
    d="M402.46 486.19l2.09 1.61c.76.58.66 1.75-.18 2.2l-18.05 9.74c-.73.4-1.65.02-1.89-.78l-1-3.3c-.19-.62.11-1.29.7-1.57l16.95-8.05c.45-.21.98-.15 1.38.15z"
  />
  <path
    class="st26"
    d="M431.48 582.5L317.4 599.04a19.143 19.143 0 0 0-16.31 17.13l-8.5 97.17 25.48 1.65 12.24-84.22 71.64 1.86c19.45 0 34.36-17.27 31.53-36.51l-2-13.62z"
  />
  <path class="st40" d="M289.43 571.81h-60.18v-3.9h60.18z" />
  <path class="st40" d="M229.26 571.8l-19.48-56.86 4.09-.98 19.09 54.62z" />
  <path
    class="st32"
    d="M381.66 485.56s6.01-1.87 7.56-8.43c0 0 1.6 7.88-6.57 12.56l-.99-4.13z"
  />
  <path class="st41" d="M298.97 582.6H143.08v-10.81h155.89z" />
  <path class="st31" d="M276.93 595.88H162.81" />
  <path
    class="st34"
    d="M307.3 552.41l-20.57-2.55c-1.67-.21-3.32.47-4.36 1.79L268.98 568l11.79-.05 4.89-6.69s15.74 4.86 21.85 1.2l-.21-10.05z"
  />
  <path
    class="st39"
    d="M398.89 501.46l-34.05 50.87-59.2-1.62-.93 17 63.62 6.28c5.98.59 11.84-1.97 15.47-6.76l37.53-49.48-22.44-16.29z"
  />
  <path class="st36" d="M305.64 550.71l-.93 17 6.39.63.95-17.27z" />
  <path class="st42" d="M375.01 535.94l18.63-26.64M384.71 567.29l19.31-25.46" />
  <path class="st26" d="M232.49 270.06h4.53v109.01h-4.53z" />
  <circle class="st2" cx="234.75" cy="406.05" r="11.84" />
  <path
    class="st26"
    d="M277.02 406.24h-84.53l42.26-42.26zM330.15 270.06h3.24v47.89h-3.24z"
  />
  <linearGradient
    id="b"
    x1="331.55"
    x2="327.41"
    y1="644.79"
    y2="298.06"
    gradientUnits="userSpaceOnUse"
  >
    <stop stop-color="#FDBD29" stop-opacity="0" offset="0" />
    <stop stop-color="#FDBD29" offset="1" />
  </linearGradient>
  <path
    fill="url(#b)"
    opacity=".53"
    d="M331.77 312.28L118.91 666.53l425.71-6.7z"
  />
  <circle class="st2" cx="331.77" cy="342.07" r="6.93" />
  <path class="st26" d="M350.09 342.07l-36.64.58 18.32-30.49z" />
  <defs>
    <circle id="e" cx="368.59" cy="596.98" r="259.9" />
  </defs>
  <clipPath id="a">
    <use xlink:href="#e" />
  </clipPath>
  <g clip-path="url(#a)">
    <ellipse
      class="st1"
      transform="rotate(-88.206 133.36 612.652)"
      cx="133.36"
      cy="612.65"
      rx="54.32"
      ry="54.32"
    />
    <path
      class="st26"
      d="M110.45 704.51c4.44 1.16 9 2.02 13.68 2.53l6.05-15.62c4.15.23 8.25.13 12.27-.27l7.37 15.24c4.54-.74 8.98-1.82 13.29-3.19l-.82-16.74c4-1.52 7.84-3.36 11.5-5.49l12.9 10.89c3.75-2.49 7.31-5.24 10.66-8.24l-7.56-14.96c3.09-3.08 5.93-6.42 8.48-9.99l16.2 4.7c2.35-3.74 4.44-7.67 6.26-11.75l-13.01-10.61a78.12 78.12 0 0 0 3.64-12.81l16.65-2.29c.29-2.18.52-4.38.66-6.61s.2-4.44.19-6.64l-16.22-4.4c-.28-4.5-.95-8.9-1.96-13.17l14.26-8.85a94.686 94.686 0 0 0-4.7-12.46l-16.67 2.59a77.51 77.51 0 0 0-7.13-11l9.41-13.86c-2.94-3.4-6.12-6.58-9.52-9.53l-14.19 9.15a78.35 78.35 0 0 0-10.71-6.92l2.96-16.49c-4.1-1.91-8.37-3.55-12.77-4.86l-9.27 14.17c-3.93-.92-7.98-1.54-12.13-1.84l-4-16.27c-4.71-.09-9.35.17-13.9.76l-2.7 16.7c-3.9.75-7.7 1.8-11.38 3.11l-10.28-13.25c-4.37 1.84-8.58 4-12.59 6.45l4.33 16.36a78.796 78.796 0 0 0-8.82 7.16l-14.81-7.93a94.645 94.645 0 0 0-9.06 11.09l10.6 13.17a77.66 77.66 0 0 0-5.09 9.85l-16.79-1.23a93.059 93.059 0 0 0-3.84 13.89l15.02 7.71c-.24 1.8-.43 3.62-.55 5.46s-.17 3.67-.16 5.49l-15.88 5.72c.31 4.86 1 9.62 2.03 14.27l16.81.93c1.02 3.58 2.28 7.06 3.78 10.42l-12.2 11.7c2.21 4.25 4.75 8.31 7.56 12.16l15.7-5.97c2.41 2.93 5.02 5.68 7.83 8.23l-6.39 15.68c3.67 2.94 7.56 5.62 11.66 8l11.89-11.82a78.55 78.55 0 0 0 10.89 4.54l.57 16.94zm-20.14-94.1c1.58-24.63 22.83-43.31 47.46-41.73s43.31 22.83 41.72 47.46c-1.58 24.63-22.83 43.31-47.46 41.73s-43.31-22.83-41.72-47.46z"
    />
    <path
      class="st26"
      d="M163.8 615.14c1.03-15.97-11.08-29.74-27.05-30.77s-29.74 11.08-30.77 27.05c-1.03 15.96 11.08 29.74 27.05 30.77s29.75-11.08 30.77-27.05z"
    />
  </g>
  <g clip-path="url(#a)">
    <ellipse
      class="st1"
      transform="rotate(-88.206 198.752 746.524)"
      cx="198.75"
      cy="746.52"
      rx="40.35"
      ry="40.35"
    />
    <path
      class="st41"
      d="M194.1 796.82l2.78 11.72 16.13-1.35.8-12.18a50.1 50.1 0 0 0 13.93-6.64l9.64 7.18 11.48-11.4-7.29-9.94c2.78-4.26 4.92-8.95 6.31-13.94l12.16-.71 1.47-16.12-12.21-2.99c-.64-5.13-2.05-9.99-4.09-14.48l9.07-8.55-9.24-13.29-11.53 5.69a50.616 50.616 0 0 0-12.22-8.33l1.48-12.65-15.61-4.25-5.26 11.94c-2.21-.11-4.45-.08-6.71.1-2.7.22-5.32.67-7.86 1.29l-7.06-10.73-14.69 6.78 3.65 12.53a50.505 50.505 0 0 0-10.33 10.42l-12.24-3.67-6.89 14.64 10.69 7.14a50.254 50.254 0 0 0-1.28 14.82l-11.52 4.96 4.13 15.65 12.5-1.37a50.28 50.28 0 0 0 8.69 12.41l-5.5 10.94 13.22 9.33 8.52-8.89a49.35 49.35 0 0 0 14.88 3.94zm-21.36-47.8c-1.23-14.72 9.7-27.65 24.42-28.89 14.72-1.23 27.66 9.7 28.89 24.42s-9.7 27.66-24.42 28.89-27.66-9.7-28.89-24.42z"
    />
    <path
      class="st41"
      d="M217.62 745.26c-.84-10.07-9.69-17.54-19.75-16.7-10.07.84-17.54 9.69-16.7 19.75.84 10.07 9.69 17.54 19.75 16.7 10.07-.84 17.54-9.68 16.7-19.75z"
    />
  </g>
  <path
    class="st45"
    d="M696.3 275c0 11.61-9.41 21.02-21.02 21.02h-86.64c-8.53 0-15.87-5.13-19.09-12.48 3.79 3.99 9.15 6.48 15.09 6.48h86.64c11.61 0 21.02-9.41 21.02-21.02 0-3.01-.63-5.87-1.78-8.46 3.59 3.76 5.78 8.86 5.78 14.46z"
  />
  <path
    d="M692.3 269c0 11.61-9.41 21.02-21.02 21.02h-86.64c-5.94 0-11.3-2.49-15.09-6.48a20.507 20.507 0 0 1-1.76-8.37c0-11.52 9.34-20.86 20.85-20.86 8.3 0 15.48 4.85 18.83 11.88.19-16.11 13.31-29.11 29.46-29.11 8.93 0 16.94 3.97 22.34 10.25a27.9 27.9 0 0 1 2.28 3.03c1.32 1.99 2.4 4.15 3.2 6.44a20.85 20.85 0 0 1 10.53-2.82c6 0 11.42 2.52 15.24 6.56 1.15 2.59 1.78 5.45 1.78 8.46z"
    fill="#f2f2f2"
  />
  <path class="st1" d="M399.47 740.97l22.7-89.51 22.7 89.51z" />
  <path class="st1" d="M426.64 740.97l32.49-128.13 32.49 128.13z" />
  <path class="st1" d="M456.15 740.97l25.99-102.48 25.99 102.48z" />
  <path fill="#d9e021" d="M399.47 740.97l22.7-89.51 22.7 89.51z" />
  <path
    class="st35"
    d="M447.84 744.05c-.91 0-1.73-.61-1.96-1.53l-29.79-117.44a21.877 21.877 0 0 0-21.22-16.52c-9.74 0-18.4 6.54-21.06 15.91-10.41 36.7-34.66 116.77-34.91 117.57a2.028 2.028 0 0 1-3.88-1.18c.24-.8 24.49-80.84 34.89-117.5 3.15-11.11 13.42-18.87 24.97-18.87 11.89 0 22.24 8.05 25.16 19.58l29.78 117.44c.28 1.09-.38 2.19-1.47 2.47-.18.05-.34.07-.51.07z"
  />
  <path class="st29" d="M426.64 740.97l32.49-128.13 32.49 128.13z" />
  <path class="st48" d="M456.15 740.97l25.99-102.48 25.99 102.48z" />
  <circle class="st1" cx="521.09" cy="714.19" r="16.42" />
  <path class="st1" d="M519.17 729.07h3.84v11.9h-3.84z" />
  <circle class="st1" cx="564.64" cy="694.09" r="28.74" />
  <path class="st1" d="M561.28 720.14H568v20.83h-6.72z" />
  <circle class="st29" cx="521.09" cy="714.19" r="16.42" />
  <path class="st29" d="M519.17 729.07h3.84v11.9h-3.84z" />
  <circle class="st48" cx="564.64" cy="694.09" r="28.74" />
  <path class="st29" d="M561.28 720.14H568v20.83h-6.72z" />
  <path
    class="st45"
    d="M472.51 218.36c0 10.64-8.64 19.28-19.29 19.28h-70.45c-7.11 0-13.06-4.91-14.65-11.52a15 15 0 0 0 11.65 5.52h70.45c10.65 0 19.29-8.64 19.29-19.28 0-1.91-.28-3.76-.8-5.5 2.39 3.21 3.8 7.19 3.8 11.5z"
  />
  <path
    class="st49"
    d="M469.51 212.36c0 10.64-8.64 19.28-19.29 19.28h-70.45a15 15 0 0 1-11.65-5.52c-.28-1.14-.43-2.33-.43-3.55 0-8.34 6.75-15.08 15.08-15.08 0-8.33 6.74-15.08 15.08-15.08 2.84 0 5.5.79 7.77 2.16 3.91-10.07 13.7-17.19 25.13-17.19 9.36 0 17.61 4.76 22.45 12 .94 1.4 1.74 2.89 2.4 4.45.77 1.8 1.34 3.7 1.7 5.67 4.65 1 8.67 3.67 11.41 7.36.52 1.74.8 3.59.8 5.5z"
  />
  <path
    class="st45"
    d="M143.65 377.16c0 12.66-10.28 22.95-22.96 22.95H36.83c-8.46 0-15.55-5.84-17.44-13.71a17.85 17.85 0 0 0 13.87 6.57h83.86c12.68 0 22.96-10.28 22.96-22.95 0-2.27-.33-4.48-.95-6.55a22.87 22.87 0 0 1 4.52 13.69z"
  />
  <path
    class="st49"
    d="M140.08 370.02c0 12.66-10.28 22.95-22.96 22.95H33.26a17.88 17.88 0 0 1-13.87-6.57 17.88 17.88 0 0 1-.51-4.23c0-9.93 8.03-17.95 17.95-17.95 0-9.92 8.02-17.95 17.95-17.95 3.38 0 6.55.94 9.25 2.57 4.65-11.99 16.31-20.46 29.91-20.46 11.14 0 20.96 5.67 26.72 14.28 1.12 1.67 2.07 3.44 2.86 5.3.92 2.14 1.59 4.4 2.02 6.75a22.943 22.943 0 0 1 13.58 8.76c.62 2.07.96 4.28.96 6.55z"
  />
  <path
    d="M575.39 745.92v8.51c-.71.95-1.44 1.89-2.18 2.83a260.697 260.697 0 0 1-33.73 35.54H197.72a260.697 260.697 0 0 1-33.73-35.54c-.26-.33-.52-.67-.78-1a247.73 247.73 0 0 1-7.62-10.34h419.8z"
    opacity=".1"
    fill="#272d7a"
  />
  <path
    class="st26"
    d="M584.82 740.23a258.27 258.27 0 0 1-11.61 16.03h-410c-3.86-4.96-7.53-10.06-11.02-15.3-.21-.31-.42-.62-.62-.94l433.25.21z"
  />
</svg>
