<?xml version="1.0" encoding="utf-8"?>
<!-- Generator: Adobe Illustrator 23.0.1, SVG Export Plug-In . SVG Version: 6.00 Build 0)  -->
<svg version="1.1" id="Layer_1" xmlns="http://www.w3.org/2000/svg" xmlns:xlink="http://www.w3.org/1999/xlink" x="0px" y="0px"
	 viewBox="0 0 512 512" style="enable-background:new 0 0 512 512;" xml:space="preserve">
<style type="text/css">
	.st0{fill:#51ABE2;}
	.st1{clip-path:url(#SVGID_2_);}
	.st2{fill:#FFFFFF;}
</style>
<g>
	<path class="st0" d="M307.7,46.5L262,13.2c-3.1-2.1-8.3-2.1-11.5,0l-45.7,33.3l-100.1,72.8L25,177.2c-4.7,2.9-7.7,6.7-7.7,9.9
		c0,75.7,0,303,0,303c0,5.9,4.7,10,9.6,10.4c0.3,0,0.5,0,0.8,0h456c6.7-0.1,10.5-5.3,10.5-12.5c0,0,0-225.8,0-301
		c0-3.1-3.9-7-7.7-9.9L407.8,120L307.7,46.5z M474.4,205.7v263.6L302.3,331.5L474.4,205.7L474.4,205.7z M387,245.5l-131.2,95.6
		l-131.2-95.6l-19.8-14.4l-60.4-44l60.4-43.9l132.6-96.8l18.4-13.5h0l18.3,13.5l133.7,97.7l58.9,43.3v0l-58.9,42.9L387,245.5z
		 M37.2,205.7l172.1,125.8L37.2,470.1V205.7z M55.9,480.6L226,343.7l23.5,17.2c4.5,3.4,7.9,3.4,12.5,0l23.5-17.2l171.1,136.9H55.9
		L55.9,480.6z"/>
</g>
<g>
	<defs>
		<polygon id="SVGID_1_" points="466.7,187.4 255.8,341.1 44.4,187.1 55.9,0 466.7,0 		"/>
	</defs>
	<clipPath id="SVGID_2_">
		<use xlink:href="#SVGID_1_"  style="overflow:visible;"/>
	</clipPath>
	<g class="st1">
		<path class="st0" d="M396.7,46.5H307l-33.6-0.1h-36.7l-32.6,0.1h-89.7c-6.2,0-10.4,5.2-10.4,10.4v62.4l0.1,23.9v241.4
			c0,8,6.5,14.5,14.5,14.5l274-0.7c8,0,14.5-6.5,14.5-14.5v-327C407.1,50.7,401.9,46.5,396.7,46.5z M386.3,375.5H123.9V67.3h262.4
			V375.5z"/>
		<path class="st2" d="M123.9,67.3v308.2h262.4V67.3H123.9z M325.9,265.1H185.4v-19.8h140.5V265.1z M325.9,201.6H185.4v-19.8h140.5
			V201.6z M325.9,138.1H185.4v-19.8h140.5V138.1z"/>
		<rect x="185.4" y="118.3" class="st0" width="140.5" height="19.8"/>
		<rect x="185.4" y="181.8" class="st0" width="140.5" height="19.8"/>
		<rect x="185.4" y="245.3" class="st0" width="140.5" height="19.8"/>
	</g>
</g>
</svg>
