<svg xmlns="http://www.w3.org/2000/svg" viewBox="0 0 213.5 50.59"><defs><style>.cls-1{fill:#0747a6}.cls-2{fill:#fff}</style></defs><g id="Layer_2" data-name="Layer 2"><g id="Layer_1-2" data-name="Layer 1"><path class="cls-1" d="M65.48 36.16v-9h1.79a9.19 9.19 0 0 0 2.66 5.58 7.58 7.58 0 0 0 5.41 2 6 6 0 0 0 3.78-1.12 3.59 3.59 0 0 0 1.42-3 3 3 0 0 0-1.07-2.45 10.23 10.23 0 0 0-3.94-1.51l-2.69-.58q-4.36-1-5.83-2.34a5.18 5.18 0 0 1-1.46-4 5.24 5.24 0 0 1 2.12-4.39 9.13 9.13 0 0 1 5.72-1.64 9.73 9.73 0 0 1 3.38.59 11 11 0 0 1 3.09 1.83l1-2h1.52v8.22h-1.81a8.06 8.06 0 0 0-2.25-5 6.81 6.81 0 0 0-4.9-1.76 6.33 6.33 0 0 0-3.74 1 3.17 3.17 0 0 0-1.35 2.72 2.68 2.68 0 0 0 1.07 2.2 7.74 7.74 0 0 0 3.34 1.29l3.14.65c2.78.56 4.75 1.33 5.89 2.33A5.22 5.22 0 0 1 83.5 30a6.14 6.14 0 0 1-2.24 4.91 8.71 8.71 0 0 1-5.83 1.89 9.93 9.93 0 0 1-3.85-.74 11.32 11.32 0 0 1-3.38-2.31l-1.06 2.4zM85.49 28.52a8 8 0 0 1 2.36-5.94 9.07 9.07 0 0 1 12.07 0 8 8 0 0 1 2.35 5.94 7.87 7.87 0 0 1-2.35 5.91 9.14 9.14 0 0 1-12.08 0 7.87 7.87 0 0 1-2.35-5.91zm3.15 0A7.54 7.54 0 0 0 90 33.36a5.32 5.32 0 0 0 7.78 0 7.54 7.54 0 0 0 1.36-4.84 7.57 7.57 0 0 0-1.37-4.87 5.27 5.27 0 0 0-7.77 0 7.63 7.63 0 0 0-1.36 4.87zM107.05 17.83a2 2 0 0 0-.41-1.5 2.89 2.89 0 0 0-1.71-.35H104v-1.55h5.84v18.3a2 2 0 0 0 .4 1.5 2.74 2.74 0 0 0 1.67.35h1v1.58H104v-1.58h.9a2.8 2.8 0 0 0 1.71-.36 2 2 0 0 0 .41-1.49zM117.17 29.61V24.3a2 2 0 0 0-.42-1.51 2.74 2.74 0 0 0-1.68-.36h-.71v-1.56h5.56V30a6.87 6.87 0 0 0 .75 3.73 2.79 2.79 0 0 0 2.5 1.09 4.63 4.63 0 0 0 3.54-1.44 5.42 5.42 0 0 0 1.34-3.84V24.3a2 2 0 0 0-.4-1.51 2.66 2.66 0 0 0-1.67-.36h-1.26v-1.56h6.13v11.86a2 2 0 0 0 .41 1.49 2.73 2.73 0 0 0 1.7.36h.9v1.58h-5.81V33.5a6.33 6.33 0 0 1-2.36 2.3 6.6 6.6 0 0 1-3.27.79 6.19 6.19 0 0 1-2.54-.48 4.23 4.23 0 0 1-1.76-1.44 4.48 4.48 0 0 1-.73-1.73 18.41 18.41 0 0 1-.22-3.33zM137.91 33V22.46h-2.72v-1.59A3.4 3.4 0 0 0 138 19.3a9.46 9.46 0 0 0 1.19-4.49h1.52v6.06h4.67v1.59h-4.67V33a2 2 0 0 0 .38 1.36 1.46 1.46 0 0 0 1.17.43 1.89 1.89 0 0 0 1.85-1 9.67 9.67 0 0 0 .52-3.89h1.49v.35a8.94 8.94 0 0 1-1 4.94 3.73 3.73 0 0 1-3.32 1.51 3.88 3.88 0 0 1-2.8-1 3.56 3.56 0 0 1-1.09-2.7zM148.76 36.16v-1.58h1a2.75 2.75 0 0 0 1.69-.36 2 2 0 0 0 .41-1.49V24.3a2 2 0 0 0-.42-1.51 2.74 2.74 0 0 0-1.68-.36h-1v-1.56h5.94v11.86a1.93 1.93 0 0 0 .42 1.49 2.71 2.71 0 0 0 1.69.36h.82v1.58zM151.05 16a1.87 1.87 0 0 1 .52-1.31 1.81 1.81 0 0 1 2.59 0 1.8 1.8 0 0 1 .54 1.3 1.73 1.73 0 0 1-.53 1.28 1.85 1.85 0 0 1-2.6 0 1.79 1.79 0 0 1-.52-1.27zM159.47 28.52a8 8 0 0 1 2.35-5.94 9.08 9.08 0 0 1 12.08 0 8 8 0 0 1 2.35 5.94 7.91 7.91 0 0 1-2.35 5.91 9.15 9.15 0 0 1-12.09 0 7.9 7.9 0 0 1-2.34-5.91zm3.14 0a7.6 7.6 0 0 0 1.39 4.84 5.33 5.33 0 0 0 7.79 0 7.6 7.6 0 0 0 1.36-4.84 7.63 7.63 0 0 0-1.37-4.87 5.28 5.28 0 0 0-7.78 0 7.69 7.69 0 0 0-1.39 4.87zM178.22 36.16v-1.58h.92a2.71 2.71 0 0 0 1.69-.36 1.93 1.93 0 0 0 .42-1.49V24.3a2 2 0 0 0-.42-1.51 2.75 2.75 0 0 0-1.69-.36h-.92v-1.56H184v2.62a6.23 6.23 0 0 1 2.36-2.29 6.75 6.75 0 0 1 3.27-.78 6.17 6.17 0 0 1 2.53.48 4.47 4.47 0 0 1 1.84 1.47 4.63 4.63 0 0 1 .72 1.73 18.45 18.45 0 0 1 .21 3.31v5.32a2 2 0 0 0 .41 1.49 2.75 2.75 0 0 0 1.69.36h.72v1.58H189v-1.58h1.07a2.74 2.74 0 0 0 1.67-.35 2 2 0 0 0 .41-1.5V27a7 7 0 0 0-.74-3.74 2.75 2.75 0 0 0-2.47-1.09 4.66 4.66 0 0 0-3.55 1.43 5.39 5.39 0 0 0-1.39 3.81v5.32a2 2 0 0 0 .4 1.5 2.77 2.77 0 0 0 1.67.35h1.08v1.58zM199.77 36.29v-6.41h1.67a6.15 6.15 0 0 0 2 3.67 5.67 5.67 0 0 0 3.83 1.38 4.43 4.43 0 0 0 2.6-.68 2.1 2.1 0 0 0 1-1.82 1.83 1.83 0 0 0-.71-1.48 4.84 4.84 0 0 0-2.16-.85l-2.91-.55a7.47 7.47 0 0 1-3.79-1.71 4.06 4.06 0 0 1-1.3-3.08 3.84 3.84 0 0 1 1.56-3.18 6.66 6.66 0 0 1 4.18-1.22 7.74 7.74 0 0 1 2.54.43 8.88 8.88 0 0 1 2.38 1.28l.64-1.39h1.46v6h-1.64a5.76 5.76 0 0 0-1.78-3.42 5.22 5.22 0 0 0-3.58-1.26 3.7 3.7 0 0 0-2.25.62 2 2 0 0 0-.18 3.14 4.3 4.3 0 0 0 2 .84l3 .58a7.79 7.79 0 0 1 3.77 1.62 3.75 3.75 0 0 1 1.31 2.91 4.38 4.38 0 0 1-1.65 3.62 7.18 7.18 0 0 1-4.57 1.31 7.66 7.66 0 0 1-2.77-.5A8 8 0 0 1 202 34.6l-.68 1.65z"/><circle class="cls-1" cx="25.29" cy="25.29" r="25.29"/><path class="cls-2" d="M14.32 2.5A24.34 24.34 0 0 1 18.17 1v18.7c.27-.33.44-.54.6-.75a16.53 16.53 0 0 1 10.82-6.45c10.58-1.5 18.19 5.25 20 12.72 2.25 9.21-1.82 17.42-9.75 21.08-5.74 2.64-14.68 2.23-20.17-3.16a17.29 17.29 0 0 1-5.15-10.39 32.77 32.77 0 0 1-.22-4.09V2.91zM46.25 30a14.05 14.05 0 1 0-14.2 14.1A14.14 14.14 0 0 0 46.25 30z"/><path d="M8.85 9.81a3.77 3.77 0 0 1-3.78 3.74 3.9 3.9 0 0 1-3.74-3.88A3.9 3.9 0 0 1 5.2 6a3.79 3.79 0 0 1 3.65 3.81z" fill="#fdbd29"/><path class="cls-2" d="M33.05 49.38l-.24.07V1.13l.24.08v48.17z"/><path class="cls-2" d="M.42 29.91l-.04-.25h49.79v.25H.42z"/><path class="cls-2" d="M3.35 14.49v23.4A25.31 25.31 0 0 0 7.22 43V14.42a3.93 3.93 0 0 1-3.87.07z"/></g></g></svg>