<svg xmlns="http://www.w3.org/2000/svg" xmlns:xlink="http://www.w3.org/1999/xlink" viewBox="0 0 429.97 407.67"><defs><linearGradient id="i" x1="286.08" y1="228.13" x2="279.13" y2="237.62" xlink:href="#a"/><linearGradient id="f" x1="269.59" y1="353.06" x2="159.81" y2="7.73" xlink:href="#a"/><linearGradient id="g" x1="258.5" y1="293.13" x2="174.08" y2="77.38" xlink:href="#a"/><linearGradient id="h" x1="235.49" y1="232.52" x2="199.24" y2="143.22" xlink:href="#a"/><linearGradient id="c" x1="368.59" y1="68.53" x2="351.39" y2="40.04" gradientUnits="userSpaceOnUse"><stop offset="0" stop-color="#700c4c"/><stop offset="1" stop-color="#fc484c"/></linearGradient><linearGradient id="b" x1="387.76" y1="43.77" x2="403.51" y2="64.61" gradientUnits="userSpaceOnUse"><stop offset="0" stop-color="#fca74c"/><stop offset=".4" stop-color="#fcf976" stop-opacity=".6"/><stop offset="1" stop-color="#fcf976" stop-opacity="0"/></linearGradient><linearGradient id="a" x1="51.7" y1="416.59" x2="190.31" y2="223.78" gradientUnits="userSpaceOnUse"><stop offset="0" stop-color="#5e9eff"/><stop offset="1" stop-color="#0747a6" stop-opacity="0"/></linearGradient><linearGradient id="j" x1="298.9" y1="110.91" x2="314.65" y2="131.75" xlink:href="#b"/><linearGradient id="k" x1="348.8" y1="78.04" x2="356.62" y2="89.51" xlink:href="#c"/><linearGradient id="l" x1="370.34" y1="79.48" x2="387.37" y2="96.33" xlink:href="#c"/><radialGradient id="e" cx="232.45" cy="191.97" r="182.7" gradientTransform="matrix(.99 0 0 .99 -.21 38.6)" gradientUnits="userSpaceOnUse"><stop offset="0" stop-color="#5e9eff"/><stop offset=".29" stop-color="#5d9dfe" stop-opacity=".99"/><stop offset=".43" stop-color="#5b9bfc" stop-opacity=".96"/><stop offset=".53" stop-color="#5696f7" stop-opacity=".91"/><stop offset=".62" stop-color="#5090f1" stop-opacity=".84"/><stop offset=".7" stop-color="#4888e8" stop-opacity=".75"/><stop offset=".77" stop-color="#3e7ede" stop-opacity=".63"/><stop offset=".84" stop-color="#3272d2" stop-opacity=".49"/><stop offset=".9" stop-color="#2464c4" stop-opacity=".33"/><stop offset=".96" stop-color="#1555b4" stop-opacity=".16"/><stop offset="1" stop-color="#0747a6" stop-opacity="0"/></radialGradient><radialGradient id="d" cx="280.82" cy="803.88" r="29.5" gradientTransform="matrix(1.36 0 0 1.36 -145.43 -954.59)" gradientUnits="userSpaceOnUse"><stop offset="0" stop-color="#fff"/><stop offset=".09" stop-color="#fff" stop-opacity=".97"/><stop offset=".22" stop-color="#fff" stop-opacity=".89"/><stop offset=".38" stop-color="#fff" stop-opacity=".76"/><stop offset=".56" stop-color="#fff" stop-opacity=".57"/><stop offset=".76" stop-color="#fff" stop-opacity=".33"/><stop offset=".97" stop-color="#fff" stop-opacity=".05"/><stop offset="1" stop-color="#fff" stop-opacity="0"/></radialGradient><radialGradient id="m" cx="130.77" cy="-762.42" r="29.5" gradientTransform="matrix(1.88 0 0 1.88 -190.75 1620.78)" xlink:href="#d"/><radialGradient id="n" cx="220.29" cy="223.93" r="29.5" gradientTransform="matrix(2.07 0 0 2.07 -214.98 -206.55)" xlink:href="#d"/><radialGradient id="o" cx="486.79" cy="372.97" r="29.5" gradientTransform="matrix(.64 0 0 .64 78.23 -219.96)" xlink:href="#d"/></defs><g data-name="Layer 2"><path d="M228.76 407.67c-99.23 0-180-80.73-180-180s80.74-180 180-180 180 80.73 180 180-80.76 180-180 180z" fill="url(#e)" opacity=".4"/><path d="M204.26 370.12c-91.39 0-165.74-74.35-165.74-165.73S112.87 38.66 204.26 38.66 370 113 370 204.39s-74.36 165.73-165.74 165.73zm0-306.06c-77.38 0-140.34 63-140.34 140.33s63 140.33 140.34 140.33 140.33-63 140.33-140.33S281.64 64.06 204.26 64.06z" fill="url(#a)"/><path d="M216.05 345.1c-88.49 0-160.48-72-160.48-160.47s72-160.48 160.48-160.48 160.47 72 160.47 160.48S304.53 345.1 216.05 345.1z" fill="#fff"/><path d="M216.05 350.36c-91.39 0-165.73-74.35-165.73-165.73S124.66 18.89 216.05 18.89s165.73 74.35 165.73 165.74-74.35 165.73-165.73 165.73zm0-306.07c-77.38 0-140.34 63-140.34 140.34S138.67 325 216.05 325s140.33-63 140.33-140.37S293.43 44.29 216.05 44.29z" fill="url(#f)"/><path d="M216.05 279.14a94.52 94.52 0 1194.51-94.51 94.62 94.62 0 01-94.51 94.51zm0-163.63a69.12 69.12 0 1069.11 69.12 69.2 69.2 0 00-69.11-69.12z" fill="url(#g)"/><circle cx="216.05" cy="184.63" r="31.09" fill="url(#h)"/><path fill="url(#c)" d="M393.01 40.32V7.72l-63.51 65.2-6.59 21.21 70.1-53.81z"/><path d="M407.05 56.86c0 6.83-5.66 10-11.85 8.34A19 19 0 01382.84 53c-2-6.55 1-12.71 8-12.71 8.27.03 16.21 8.25 16.21 16.57z" fill="url(#b)"/><path d="M215.34 188L338.4 297.45s4-2.53 12.12-14.74a172.21 172.21 0 0012-20.51l-145.36-79.65a1.66 1.66 0 00-.49-.3l-.08-.05a1.59 1.59 0 00-1.43.2 3.8 3.8 0 00-1.24 4.07 2.87 2.87 0 00.25.56h.05a1.82 1.82 0 001.12.97z" opacity=".3" fill="url(#i)"/><path d="M219.79 186.82L404.57 63.3 386.2 42.48l-171.12 140a2.58 2.58 0 00-.6.49l-.1.08a2.6 2.6 0 00-.62 1.88 3.57 3.57 0 004.34 3l.07-.05a2.73 2.73 0 001.62-1.06z" fill="url(#j)"/><path fill="url(#k)" d="M385.5 58.07l-4.01 8.34-61.3 43.47 2.78-7.67 62.53-44.14z"/><path fill="url(#l)" d="M403.81 63.3h26.16l-80.59 50.4h-20.44l74.87-50.4z"/><circle cx="235.44" cy="135.71" r="40.02" style="mix-blend-mode:overlay" fill="url(#d)"/><circle cx="55.57" cy="184.63" r="55.57" style="mix-blend-mode:overlay" fill="url(#m)"/><circle cx="240.15" cy="256.11" r="60.96" style="mix-blend-mode:overlay" fill="url(#n)"/><circle cx="389.97" cy="18.89" r="18.89" style="mix-blend-mode:overlay" fill="url(#o)"/></g></svg>