<svg xmlns="http://www.w3.org/2000/svg" width="512" height="512"><path d="M483.395 372.952H27.575v-44.28c0-12.005 9.732-21.737 21.737-21.737h412.346c12.005 0 21.737 9.732 21.737 21.737v44.28z" fill="#ffab00"/><path d="M443.493 372.952H68.507V271.051c0-73.472 59.561-133.033 133.033-133.033h108.92c73.472 0 133.033 59.561 133.033 133.033v101.901z" fill="#ffd740"/><path d="M310.475 138.017H279.57c73.464 0 133.018 59.568 133.018 133.049v83.339h30.905v-83.339c0-73.481-59.554-133.049-133.018-133.049z" fill="#ffc400"/><path d="M385.459 372.952H126.541v-81.425c0-10.801 8.756-19.556 19.556-19.556h219.806c10.801 0 19.556 8.756 19.556 19.556v81.425z" fill="#ffc400"/><path d="M365.905 271.971H335c10.8 0 19.554 8.757 19.554 19.559v81.422h30.905V291.53c.001-10.802-8.754-19.559-19.554-19.559z" fill="#ffab00"/><path d="M493.455 391.5H18.545C8.303 391.5 0 383.197 0 372.955v-.004c0-10.242 8.303-18.545 18.545-18.545h474.909c10.242 0 18.545 8.303 18.545 18.545v.004c.001 10.242-8.302 18.545-18.544 18.545z" fill="#ffd740"/><path d="M493.457 354.405h-30.905c10.241 0 18.543 8.304 18.543 18.547s-8.302 18.548-18.543 18.548h30.905c10.241 0 18.543-8.304 18.543-18.548 0-10.243-8.302-18.547-18.543-18.547z" fill="#ffc400"/><path d="M311.63 271.971H200.37v-143.08a8.391 8.391 0 018.391-8.391h94.478a8.391 8.391 0 018.391 8.391v143.08z" fill="#ffab00"/><path d="M303.24 120.5h-30.905a8.39 8.39 0 018.39 8.392v143.08h30.905v-143.08a8.39 8.39 0 00-8.39-8.392z" fill="#ff9800"/><ellipse cx="256" cy="271.456" rx="27.815" ry="27.821" fill="#b5fcff"/><path d="M256 243.635a27.676 27.676 0 00-15.453 4.688c7.453 4.991 12.362 13.488 12.362 23.133s-4.909 18.142-12.362 23.133A27.676 27.676 0 00256 299.277c15.362 0 27.815-12.456 27.815-27.821S271.362 243.635 256 243.635z" fill="#71f6fc"/></svg>