<?xml version="1.0" encoding="utf-8"?>
<!-- Generator: Adobe Illustrator 23.0.1, SVG Export Plug-In . SVG Version: 6.00 Build 0)  -->
<svg version="1.1" id="Layer_1" xmlns="http://www.w3.org/2000/svg" xmlns:xlink="http://www.w3.org/1999/xlink" x="0px" y="0px"
	 viewBox="0 0 213.5 50.6" style="enable-background:new 0 0 213.5 50.6;" xml:space="preserve">
<style type="text/css">
	.st0{fill:#0747A6;}
	.st1{fill:url(#SVGID_1_);}
	.st2{fill:#FFFFFF;}
	.st3{fill:#FDBD29;}
</style>
<g>
	<g id="Layer_1-2">
		<path class="st0" d="M65.5,36.2v-9h1.8c0.2,2.1,1.2,4.1,2.7,5.6c1.5,1.4,3.4,2.1,5.4,2c1.4,0.1,2.7-0.3,3.8-1.1
			c0.9-0.7,1.5-1.8,1.4-3c0-0.9-0.3-1.8-1.1-2.5c-1.2-0.8-2.5-1.3-3.9-1.5l-2.7-0.6c-2.9-0.7-4.9-1.4-5.8-2.3c-1-1.1-1.6-2.5-1.5-4
			c-0.1-1.7,0.7-3.4,2.1-4.4c1.7-1.2,3.7-1.7,5.7-1.6c1.2,0,2.3,0.2,3.4,0.6c1.1,0.4,2.2,1.1,3.1,1.8l1-2h1.5v8.2h-1.8
			c-0.1-1.9-0.9-3.6-2.3-5c-1.3-1.2-3.1-1.8-4.9-1.8c-1.3-0.1-2.6,0.3-3.7,1c-0.9,0.6-1.4,1.6-1.3,2.7c0,0.9,0.4,1.7,1.1,2.2
			c1,0.7,2.1,1.1,3.3,1.3l3.1,0.6c2.8,0.6,4.8,1.3,5.9,2.3c1.2,1.1,1.8,2.6,1.7,4.2c0.1,1.9-0.8,3.7-2.2,4.9c-1.7,1.3-3.7,2-5.8,1.9
			c-1.3,0-2.6-0.2-3.8-0.7c-1.3-0.6-2.4-1.3-3.4-2.3l-1.1,2.4L65.5,36.2z M85.5,28.5c-0.1-2.2,0.8-4.4,2.4-5.9
			c3.4-3.1,8.6-3.1,12.1,0c1.6,1.6,2.4,3.7,2.3,5.9c0.1,2.2-0.8,4.4-2.3,5.9c-3.5,3-8.6,3-12.1,0C86.3,32.9,85.4,30.7,85.5,28.5z
			 M88.6,28.5c-0.1,1.7,0.4,3.4,1.4,4.8c2,2.1,5.4,2.3,7.5,0.3c0.1-0.1,0.2-0.2,0.3-0.3c1-1.4,1.5-3.1,1.4-4.8
			c0.1-1.7-0.4-3.5-1.4-4.9c-2-2.1-5.3-2.3-7.4-0.3c-0.1,0.1-0.2,0.2-0.3,0.3C89,25.1,88.5,26.8,88.6,28.5z M107.1,17.8
			c0.1-0.5-0.1-1.1-0.4-1.5c-0.5-0.3-1.1-0.4-1.7-0.4H104v-1.6h5.8v18.3c-0.1,0.5,0.1,1.1,0.4,1.5c0.5,0.3,1.1,0.4,1.7,0.3h1v1.6
			H104v-1.6h0.9c0.6,0.1,1.2-0.1,1.7-0.4c0.3-0.4,0.5-1,0.4-1.5L107.1,17.8z M117.2,29.6v-5.3c0.1-0.5-0.1-1.1-0.4-1.5
			c-0.5-0.3-1.1-0.4-1.7-0.4h-0.7v-1.6h5.6V30c-0.1,1.3,0.2,2.6,0.8,3.7c0.6,0.8,1.5,1.2,2.5,1.1c1.3,0.1,2.6-0.5,3.5-1.4
			c0.9-1.1,1.4-2.4,1.3-3.8v-5.2c0.1-0.5-0.1-1.1-0.4-1.5c-0.5-0.3-1.1-0.4-1.7-0.4h-1.3v-1.6h6.1v11.9c-0.1,0.5,0.1,1.1,0.4,1.5
			c0.5,0.3,1.1,0.4,1.7,0.4h0.9v1.6h-5.8v-2.7c-0.6,1-1.4,1.8-2.4,2.3c-1,0.5-2.1,0.8-3.3,0.8c-0.9,0-1.7-0.1-2.5-0.5
			c-0.7-0.3-1.3-0.8-1.8-1.4c-0.4-0.5-0.6-1.1-0.7-1.7C117.2,31.8,117.1,30.7,117.2,29.6z M137.9,33V22.5h-2.7v-1.6
			c1.1,0,2.2-0.6,2.8-1.6c0.8-1.4,1.2-2.9,1.2-4.5h1.5v6.1h4.7v1.6h-4.7V33c0,0.5,0.1,1,0.4,1.4c0.3,0.3,0.7,0.5,1.2,0.4
			c0.8,0.1,1.5-0.3,1.9-1c0.4-1.2,0.6-2.6,0.5-3.9h1.5v0.4c0.1,1.7-0.2,3.4-1,4.9c-0.8,1-2,1.6-3.3,1.5c-1,0.1-2-0.3-2.8-1
			C138.3,35,137.9,34,137.9,33L137.9,33z M148.8,36.2v-1.6h1c0.6,0.1,1.2-0.1,1.7-0.4c0.3-0.4,0.5-1,0.4-1.5v-8.4
			c0.1-0.5-0.1-1.1-0.4-1.5c-0.5-0.3-1.1-0.4-1.7-0.4h-1v-1.6h5.9v11.9c-0.1,0.5,0.1,1.1,0.4,1.5c0.5,0.3,1.1,0.4,1.7,0.4h0.8v1.6
			L148.8,36.2z M151.1,16c0-0.5,0.2-1,0.5-1.3c0.7-0.7,1.8-0.7,2.6,0c0,0,0,0,0,0c0.3,0.3,0.5,0.8,0.5,1.3c0,0.5-0.2,0.9-0.5,1.3
			c-0.7,0.7-1.9,0.7-2.6,0C151.2,16.9,151,16.5,151.1,16L151.1,16z M159.5,28.5c-0.1-2.2,0.8-4.4,2.4-5.9c3.4-3.1,8.6-3.1,12.1,0
			c1.6,1.6,2.4,3.7,2.4,5.9c0.1,2.2-0.8,4.4-2.4,5.9c-3.5,3-8.6,3-12.1,0C160.2,32.9,159.4,30.7,159.5,28.5L159.5,28.5z M162.6,28.5
			c-0.1,1.7,0.4,3.4,1.4,4.8c2,2.2,5.4,2.3,7.5,0.3c0.1-0.1,0.2-0.2,0.3-0.3c1-1.4,1.5-3.1,1.4-4.8c0.1-1.7-0.4-3.4-1.4-4.9
			c-2-2.1-5.3-2.3-7.5-0.3c-0.1,0.1-0.2,0.2-0.3,0.3C163,25.1,162.5,26.8,162.6,28.5z M178.2,36.2v-1.6h0.9c0.6,0.1,1.2-0.1,1.7-0.4
			c0.3-0.4,0.5-1,0.4-1.5v-8.4c0.1-0.5-0.1-1.1-0.4-1.5c-0.5-0.3-1.1-0.4-1.7-0.4h-0.9v-1.6h5.8v2.6c0.6-1,1.4-1.8,2.4-2.3
			c1-0.5,2.1-0.8,3.3-0.8c0.9,0,1.7,0.1,2.5,0.5c0.7,0.3,1.4,0.8,1.8,1.5c0.4,0.5,0.6,1.1,0.7,1.7c0.2,1.1,0.2,2.2,0.2,3.3v5.3
			c-0.1,0.5,0.1,1.1,0.4,1.5c0.5,0.3,1.1,0.4,1.7,0.4h0.7v1.6H189v-1.6h1.1c0.6,0.1,1.2-0.1,1.7-0.3c0.3-0.4,0.5-1,0.4-1.5V27
			c0.1-1.3-0.2-2.6-0.7-3.7c-0.6-0.8-1.5-1.2-2.5-1.1c-1.3-0.1-2.6,0.5-3.6,1.4c-0.9,1-1.4,2.4-1.4,3.8v5.3
			c-0.1,0.5,0.1,1.1,0.4,1.5c0.5,0.3,1.1,0.4,1.7,0.3h1.1v1.6H178.2z M199.8,36.3v-6.4h1.7c0.2,1.4,0.9,2.7,2,3.7
			c1.1,0.9,2.4,1.4,3.8,1.4c0.9,0,1.8-0.2,2.6-0.7c0.6-0.4,1-1.1,1-1.8c0-0.6-0.3-1.1-0.7-1.5c-0.6-0.5-1.4-0.7-2.2-0.9l-2.9-0.5
			c-1.4-0.2-2.7-0.8-3.8-1.7c-0.9-0.8-1.3-1.9-1.3-3.1c0-1.3,0.6-2.4,1.6-3.2c1.2-0.9,2.7-1.3,4.2-1.2c0.9,0,1.7,0.1,2.5,0.4
			c0.9,0.3,1.7,0.7,2.4,1.3l0.6-1.4h1.5v6h-1.6c-0.2-1.3-0.8-2.5-1.8-3.4c-1-0.9-2.3-1.3-3.6-1.3c-0.8,0-1.6,0.2-2.3,0.6
			c-0.9,0.6-1.1,1.9-0.5,2.8c0.1,0.1,0.2,0.3,0.3,0.4c0.6,0.4,1.3,0.7,2,0.8l3,0.6c1.4,0.2,2.7,0.8,3.8,1.6c0.8,0.7,1.3,1.8,1.3,2.9
			c0.1,1.4-0.6,2.7-1.6,3.6c-1.3,0.9-2.9,1.4-4.6,1.3c-0.9,0-1.9-0.2-2.8-0.5c-0.9-0.4-1.7-0.9-2.4-1.5l-0.7,1.7L199.8,36.3z"/>
		<radialGradient id="SVGID_1_" cx="5.1483" cy="10.0651" r="40.8549" gradientUnits="userSpaceOnUse">
			<stop  offset="0" style="stop-color:#29ABE2"/>
			<stop  offset="1" style="stop-color:#0747A6"/>
		</radialGradient>
		<circle class="st1" cx="25.3" cy="25.3" r="25.3"/>
		<path class="st2" d="M14.3,2.5c1.2-0.6,2.5-1.1,3.9-1.5v18.7c0.3-0.3,0.4-0.5,0.6-0.8c2.6-3.5,6.5-5.8,10.8-6.4
			c10.6-1.5,18.2,5.2,20,12.7c2.3,9.2-1.8,17.4-9.8,21.1c-5.7,2.6-14.7,2.2-20.2-3.2c-2.9-2.8-4.7-6.4-5.1-10.4
			c-0.2-1.4-0.2-2.7-0.2-4.1V2.9L14.3,2.5z M46.3,30c0-7.8-6.3-14-14.1-14c-7.8,0-14,6.3-14,14.1c0,7.7,6.2,13.9,13.9,14
			C39.9,44.1,46.2,37.8,46.3,30C46.2,30,46.2,30,46.3,30z"/>
		<path class="st3" d="M8.9,9.8c0,2.1-1.7,3.7-3.8,3.7C3,13.5,1.3,11.8,1.3,9.7C1.5,7.6,3.1,6,5.2,6C7.2,6.1,8.9,7.8,8.9,9.8z"/>
		<path class="st2" d="M33,49.4l-0.2,0.1V1.1L33,1.2C33,1.2,33,49.4,33,49.4z"/>
		<path class="st2" d="M0.4,29.9l0-0.3h49.8v0.3H0.4z"/>
		<path class="st2" d="M3.3,14.5v23.4c1.1,1.9,2.4,3.6,3.9,5.1V14.4C6,15.1,4.6,15.1,3.3,14.5z"/>
	</g>
</g>
</svg>
