<svg version="1.1" id="Layer_1" xmlns="http://www.w3.org/2000/svg" x="0" y="0" viewBox="0 0 213.5 50.6" xml:space="preserve"><style>.st0{fill:#fff}.st3{fill:none;stroke:#fff;stroke-width:.5;stroke-linecap:round;stroke-miterlimit:10}</style><g id="Layer_1-2"><path class="st0" d="M65.5 36.2v-9h1.8c.2 2.1 1.2 4.1 2.7 5.6 1.5 1.4 3.4 2.1 5.4 2 1.4.1 2.7-.3 3.8-1.1.9-.7 1.5-1.8 1.4-3 0-.9-.3-1.8-1.1-2.5-1.2-.8-2.5-1.3-3.9-1.5l-2.7-.6c-2.9-.7-4.9-1.4-5.8-2.3-1-1.1-1.6-2.5-1.5-4-.1-1.7.7-3.4 2.1-4.4 1.7-1.2 3.7-1.7 5.7-1.6 1.2 0 2.3.2 3.4.6 1.1.4 2.2 1.1 3.1 1.8l1-2h1.5v8.2h-1.8c-.1-1.9-.9-3.6-2.3-5-1.3-1.2-3.1-1.8-4.9-1.8-1.3-.1-2.6.3-3.7 1-.9.6-1.4 1.6-1.3 2.7 0 .9.4 1.7 1.1 2.2 1 .7 2.1 1.1 3.3 1.3l3.1.6c2.8.6 4.8 1.3 5.9 2.3 1.2 1.1 1.8 2.6 1.7 4.2.1 1.9-.8 3.7-2.2 4.9-1.7 1.3-3.7 2-5.8 1.9-1.3 0-2.6-.2-3.8-.7-1.3-.6-2.4-1.3-3.4-2.3l-1.1 2.4-1.7.1zm20-7.7c-.1-2.2.8-4.4 2.4-5.9 3.4-3.1 8.6-3.1 12.1 0 1.6 1.6 2.4 3.7 2.3 5.9.1 2.2-.8 4.4-2.3 5.9-3.5 3-8.6 3-12.1 0a7.7 7.7 0 01-2.4-5.9zm3.1 0c-.1 1.7.4 3.4 1.4 4.8 2 2.1 5.4 2.3 7.5.3l.3-.3c1-1.4 1.5-3.1 1.4-4.8.1-1.7-.4-3.5-1.4-4.9-2-2.1-5.3-2.3-7.4-.3l-.3.3c-1.1 1.5-1.6 3.2-1.5 4.9zm18.5-10.7c.1-.5-.1-1.1-.4-1.5-.5-.3-1.1-.4-1.7-.4h-1v-1.6h5.8v18.3c-.1.5.1 1.1.4 1.5.5.3 1.1.4 1.7.3h1V36H104v-1.6h.9c.6.1 1.2-.1 1.7-.4.3-.4.5-1 .4-1.5l.1-14.7zm10.1 11.8v-5.3c.1-.5-.1-1.1-.4-1.5-.5-.3-1.1-.4-1.7-.4h-.7v-1.6h5.6V30c-.1 1.3.2 2.6.8 3.7.6.8 1.5 1.2 2.5 1.1 1.3.1 2.6-.5 3.5-1.4.9-1.1 1.4-2.4 1.3-3.8v-5.2c.1-.5-.1-1.1-.4-1.5-.5-.3-1.1-.4-1.7-.4h-1.3v-1.6h6.1v11.9c-.1.5.1 1.1.4 1.5.5.3 1.1.4 1.7.4h.9v1.6H128v-2.7c-.6 1-1.4 1.8-2.4 2.3s-2.1.8-3.3.8c-.9 0-1.7-.1-2.5-.5-.7-.3-1.3-.8-1.8-1.4-.4-.5-.6-1.1-.7-1.7-.1-1.3-.2-2.4-.1-3.5zm20.7 3.4V22.5h-2.7v-1.6c1.1 0 2.2-.6 2.8-1.6.8-1.4 1.2-2.9 1.2-4.5h1.5v6.1h4.7v1.6h-4.7V33c0 .5.1 1 .4 1.4.3.3.7.5 1.2.4.8.1 1.5-.3 1.9-1 .4-1.2.6-2.6.5-3.9h1.5v.4c.1 1.7-.2 3.4-1 4.9-.8 1-2 1.6-3.3 1.5-1 .1-2-.3-2.8-1-.8-.7-1.2-1.7-1.2-2.7zm10.9 3.2v-1.6h1c.6.1 1.2-.1 1.7-.4.3-.4.5-1 .4-1.5v-8.4c.1-.5-.1-1.1-.4-1.5-.5-.3-1.1-.4-1.7-.4h-1v-1.6h5.9v11.9c-.1.5.1 1.1.4 1.5.5.3 1.1.4 1.7.4h.8v1.6h-8.8zm2.3-20.2c0-.5.2-1 .5-1.3.7-.7 1.8-.7 2.6 0 .3.3.5.8.5 1.3s-.2.9-.5 1.3c-.7.7-1.9.7-2.6 0-.4-.4-.6-.8-.5-1.3zm8.4 12.5c-.1-2.2.8-4.4 2.4-5.9 3.4-3.1 8.6-3.1 12.1 0 1.6 1.6 2.4 3.7 2.4 5.9.1 2.2-.8 4.4-2.4 5.9-3.5 3-8.6 3-12.1 0-1.7-1.5-2.5-3.7-2.4-5.9zm3.1 0c-.1 1.7.4 3.4 1.4 4.8 2 2.2 5.4 2.3 7.5.3l.3-.3c1-1.4 1.5-3.1 1.4-4.8.1-1.7-.4-3.4-1.4-4.9-2-2.1-5.3-2.3-7.5-.3l-.3.3c-1 1.5-1.5 3.2-1.4 4.9zm15.6 7.7v-1.6h.9c.6.1 1.2-.1 1.7-.4.3-.4.5-1 .4-1.5v-8.4c.1-.5-.1-1.1-.4-1.5-.5-.3-1.1-.4-1.7-.4h-.9v-1.6h5.8v2.6c.6-1 1.4-1.8 2.4-2.3s2.1-.8 3.3-.8c.9 0 1.7.1 2.5.5.7.3 1.4.8 1.8 1.5.4.5.6 1.1.7 1.7.2 1.1.2 2.2.2 3.3v5.3c-.1.5.1 1.1.4 1.5.5.3 1.1.4 1.7.4h.7v1.6H189v-1.6h1.1c.6.1 1.2-.1 1.7-.3.3-.4.5-1 .4-1.5V27c.1-1.3-.2-2.6-.7-3.7-.6-.8-1.5-1.2-2.5-1.1-1.3-.1-2.6.5-3.6 1.4-.9 1-1.4 2.4-1.4 3.8v5.3c-.1.5.1 1.1.4 1.5.5.3 1.1.4 1.7.3h1.1v1.6h-9v.1zm21.6.1v-6.4h1.7c.2 1.4.9 2.7 2 3.7 1.1.9 2.4 1.4 3.8 1.4.9 0 1.8-.2 2.6-.7.6-.4 1-1.1 1-1.8 0-.6-.3-1.1-.7-1.5-.6-.5-1.4-.7-2.2-.9l-2.9-.5c-1.4-.2-2.7-.8-3.8-1.7-.9-.8-1.3-1.9-1.3-3.1 0-1.3.6-2.4 1.6-3.2 1.2-.9 2.7-1.3 4.2-1.2.9 0 1.7.1 2.5.4.9.3 1.7.7 2.4 1.3l.6-1.4h1.5v6h-1.6c-.2-1.3-.8-2.5-1.8-3.4s-2.3-1.3-3.6-1.3c-.8 0-1.6.2-2.3.6-.9.6-1.1 1.9-.5 2.8.1.1.2.3.3.4.6.4 1.3.7 2 .8l3 .6c1.4.2 2.7.8 3.8 1.6.8.7 1.3 1.8 1.3 2.9.1 1.4-.6 2.7-1.6 3.6-1.3.9-2.9 1.4-4.6 1.3-.9 0-1.9-.2-2.8-.5-.9-.4-1.7-.9-2.4-1.5l-.7 1.7h-1.5z"/><g opacity=".9"><path class="st0" d="M33 1.2c-.1 0-.1 0-.2-.1C30.4.4 27.9 0 25.3 0c-2.5 0-4.8.3-7.1 1v18.7c.3-.3.4-.5.6-.8 2.6-3.5 6.5-5.8 10.8-6.4 1.1-.2 2.2-.2 3.2-.2h.2c8.8.2 15 6.2 16.6 12.9.4 1.5.6 3 .6 4.4.2-1.4.4-2.8.4-4.3C50.6 14 43.2 4.4 33 1.2z"/><path class="st0" d="M33 44.1c7.4-.5 13.2-6.6 13.3-14.1v-.1-.3c-.2-7.3-6-13.2-13.3-13.6h-.8c-7.6 0-13.7 6-14 13.6v.5c0 7.7 6.2 13.9 13.9 14H33z"/><path class="st0" d="M33 47.8c2-.1 4-.5 5.8-1.1-1.8 1.1-3.7 2-5.8 2.7-.1 0-.1 0-.2.1-2.4.7-4.9 1.1-7.5 1.1-7.1 0-13.5-2.9-18.1-7.6V14.4c-1.2.7-2.6.7-3.9.1v23.3C1.9 35.4.9 32.7.4 29.9v-.1c-.3-1.5-.4-3-.4-4.5 0-4.5 1.2-8.7 3.2-12.3 1.2-2.2 2.7-4.2 4.5-5.9 1.9-1.9 4.1-3.4 6.6-4.6V29.9c0 .9 0 1.8.2 2.8.4 4 2.2 7.6 5.1 10.4 3.6 3.5 8.6 4.9 13.2 4.7h.2zM50 29.9h.1v-.1-.2l-.1.3z"/></g><path d="M8.9 9.8c0 2.1-1.7 3.7-3.8 3.7s-3.8-1.7-3.8-3.8C1.5 7.6 3.1 6 5.2 6c2 .1 3.7 1.8 3.7 3.8z" fill="#fdbd29"/></g><path class="st3" d="M49.9 29.6H.7M32.2 1.2v48.1"/></svg>