<svg xmlns="http://www.w3.org/2000/svg" xmlns:xlink="http://www.w3.org/1999/xlink" viewBox="0 0 550.26 497.64"><defs><style>.cls-2,.cls-3,.cls-4,.cls-5{mix-blend-mode:overlay}.cls-2{fill:url(#radial-gradient)}.cls-3{fill:url(#radial-gradient-2)}.cls-4{fill:url(#radial-gradient-3)}.cls-5{fill:url(#radial-gradient-4)}.cls-8{fill:#fff}</style><radialGradient id="radial-gradient" cx="229.11" cy="208.65" r="29.5" gradientTransform="matrix(.6 0 0 .6 91.22 83.08)" gradientUnits="userSpaceOnUse"><stop offset="0" stop-color="#fff"/><stop offset=".09" stop-color="#fff" stop-opacity=".97"/><stop offset=".22" stop-color="#fff" stop-opacity=".89"/><stop offset=".38" stop-color="#fff" stop-opacity=".76"/><stop offset=".56" stop-color="#fff" stop-opacity=".57"/><stop offset=".76" stop-color="#fff" stop-opacity=".33"/><stop offset=".97" stop-color="#fff" stop-opacity=".05"/><stop offset="1" stop-color="#fff" stop-opacity="0"/></radialGradient><radialGradient id="radial-gradient-2" cx="322.18" cy="93.93" r="29.5" gradientTransform="matrix(3.84 0 0 3.84 -942.05 -247.13)" xlink:href="#radial-gradient"/><radialGradient id="radial-gradient-3" cx="290.26" cy="244.08" r="29.5" xlink:href="#radial-gradient"/><radialGradient id="radial-gradient-4" cx="402.86" cy="180.53" r="29.5" gradientTransform="matrix(.71 0 0 .71 118.45 53.08)" xlink:href="#radial-gradient"/><radialGradient id="radial-gradient-5" cx="231.51" cy="219.92" r="103.04" gradientTransform="matrix(.93 0 0 .93 19.33 17.92)" gradientUnits="userSpaceOnUse"><stop offset="0" stop-color="#5e9eff"/><stop offset="1" stop-color="#0747a6"/></radialGradient><linearGradient id="linear-gradient" x1="226.6" y1="223" x2="323.42" y2="280.48" gradientUnits="userSpaceOnUse"><stop offset="0" stop-color="#fff"/><stop offset="1" stop-color="#fff" stop-opacity="0"/></linearGradient><linearGradient id="linear-gradient-2" x1="281.4" y1="474.24" x2="155.78" y2="187.77" gradientUnits="userSpaceOnUse"><stop offset="0" stop-color="#5e9eff"/><stop offset="1" stop-color="#0747a6" stop-opacity="0"/></linearGradient><linearGradient id="linear-gradient-3" x1="184.35" y1="367.89" x2="150.65" y2="415.38" gradientUnits="userSpaceOnUse"><stop offset="0"/><stop offset="1" stop-color="#0747a6" stop-opacity="0"/></linearGradient><linearGradient id="linear-gradient-4" x1="466.38" y1="138.29" x2="262.64" y2="502.12" xlink:href="#linear-gradient-2"/><linearGradient id="linear-gradient-5" x1="384.66" y1="367.95" x2="422.96" y2="426.93" xlink:href="#linear-gradient-3"/><linearGradient id="linear-gradient-6" x1="294.78" y1="-55.75" x2="289.06" y2="218.64" xlink:href="#linear-gradient-2"/><linearGradient id="linear-gradient-7" x1="284.35" y1="401.23" x2="199.28" y2="207.25" xlink:href="#linear-gradient-2"/><linearGradient id="linear-gradient-8" x1="395.91" y1="197.99" x2="320.33" y2="333.29" xlink:href="#linear-gradient-2"/><linearGradient id="linear-gradient-9" x1="293.41" y1="42.35" x2="289.54" y2="228.15" xlink:href="#linear-gradient-2"/></defs><g style="isolation:isolate"><g id="Layer_2" data-name="Layer 2"><g id="who"><circle class="cls-2" cx="229.11" cy="208.65" r="17.76"/><circle class="cls-3" cx="293.83" cy="113.18" r="113.18"/><circle class="cls-4" cx="290.26" cy="244.08" r="29.5"/><circle class="cls-5" cx="402.86" cy="180.53" r="20.83"/><circle cx="290.58" cy="261.34" r="70.86" fill="url(#radial-gradient-5)"/><circle cx="284.9" cy="257.62" r="61.67" style="mix-blend-mode:overlay" fill="url(#linear-gradient)"/><path class="cls-8" d="M259.83 197.48a70.11 70.11 0 0 1 10.81-4.15v52.35l1.68-2.1c7.84-9.81 17.74-16.3 30.3-18.08 29.64-4.21 51 14.71 56.08 35.64 6.31 25.8-5.09 48.8-27.3 59-16.09 7.42-41.13 6.27-56.51-8.84a48.15 48.15 0 0 1-14.42-29.1 93.22 93.22 0 0 1-.64-11.46v-72.13zm89.45 77.08c.31-21.69-18-39-38.43-39.46-22.17-.46-40 18.09-40.29 38.89A39.41 39.41 0 0 0 309.51 314c21.49.29 40.12-17.68 39.77-39.44z"/><path d="M244.52 218c.38 5.26-4.72 10.52-10.6 10.48a10.94 10.94 0 0 1-10.48-10.87c.11-4.84 4.56-10.42 10.86-10.29 5.04.08 10.64 4.68 10.22 10.68z" fill="#fdbd29"/><path class="cls-8" d="M312.31 328.82l-.68.21V193.66l.68.21v134.95z"/><path class="cls-8" d="M220.89 274.26l-.12-.67h139.52v.67h-139.4z"/><path class="cls-8" d="M229.11 231.08v65.56a71 71 0 0 0 10.83 14.28v-80a10.93 10.93 0 0 1-10.83.16z"/><g opacity=".4"><path fill="url(#linear-gradient-2)" d="M290.79 447.74l-173.33-99.81V148.3l173.33 99.82v199.62z"/><path fill="url(#linear-gradient-3)" opacity=".3" d="M290.79 447.74l-173.33-99.81L0 397.83l173.33 99.81 117.46-49.9z"/><path fill="url(#linear-gradient-4)" d="M463.6 148.3l-173.34 99.82v199.62l173.34-99.81V148.3z"/><path fill="url(#linear-gradient-5)" opacity=".3" d="M550.26 397.83l-173.33 99.81-86.67-49.9 173.34-99.81 86.66 49.9z"/><path fill="url(#linear-gradient-6)" d="M290.79 248.12L117.46 148.3l173.33-99.81h-.53L463.6 148.3l-173.34 99.82"/></g><g opacity=".6"><path fill="url(#linear-gradient-7)" d="M290.71 383.29L173.33 315.7V180.53l117.38 67.59v135.17z"/><path fill="url(#linear-gradient-8)" d="M407.72 180.53l-117.37 67.59v135.17l117.37-67.59V180.53z"/><path fill="url(#linear-gradient-9)" d="M290.71 248.12l-117.38-67.59 117.38-67.59h-.36l117.37 67.59-117.37 67.59"/></g><circle class="cls-2" cx="229.11" cy="208.65" r="17.76"/><circle class="cls-3" cx="293.83" cy="113.18" r="113.18"/><circle class="cls-4" cx="290.26" cy="244.08" r="29.5"/><circle class="cls-5" cx="402.86" cy="180.53" r="20.83"/></g></g></g></svg>