<svg xmlns="http://www.w3.org/2000/svg" viewBox="0 0 50.59 50.59">
  <defs>
    <style>.cls-2{fill:#fff}</style>
    <radialGradient id="SVGID_1_" cx="5.1483" cy="10.0651" r="40.8549" gradientUnits="userSpaceOnUse">
			<stop  offset="0" style="stop-color:#29ABE2"/>
			<stop  offset="1" style="stop-color:#0747A6"/>
		</radialGradient>
  </defs>
  <g id="Layer_2" data-name="Layer 2">
    <g id="Layer_1-2" data-name="Layer 1">
      <circle cx="25.29" cy="25.29" r="25.29" fill="url(#SVGID_1_)"/>
      <path class="cls-2" d="M14.32 2.5A24.34 24.34 0 0 1 18.17 1v18.7c.27-.33.44-.54.6-.75a16.53 16.53 0 0 1 10.82-6.45c10.58-1.5 18.19 5.25 20 12.72 2.25 9.21-1.82 17.42-9.75 21.08-5.74 2.64-14.68 2.23-20.17-3.16a17.29 17.29 0 0 1-5.15-10.39 32.77 32.77 0 0 1-.22-4.09V2.91zM46.25 30a14.05 14.05 0 1 0-14.2 14.1A14.14 14.14 0 0 0 46.25 30z"/>
      <path d="M8.85 9.81a3.77 3.77 0 0 1-3.78 3.74 3.9 3.9 0 0 1-3.74-3.88A3.9 3.9 0 0 1 5.2 6a3.79 3.79 0 0 1 3.65 3.81z" fill="#fdbd29"/>
      <path class="cls-2" d="M33.05 49.38l-.24.07V1.13l.24.08v48.17z"/>
      <path class="cls-2" d="M.42 29.91l-.04-.25h49.79v.25H.42z"/>
      <path class="cls-2" d="M3.35 14.49v23.4A25.31 25.31 0 0 0 7.22 43V14.42a3.93 3.93 0 0 1-3.87.07z"/>
    </g>
  </g>
</svg>