<svg width="120" height="120" xmlns="http://www.w3.org/2000/svg"><radialGradient id="a" cx="5.148" cy="10.065" r="40.855" gradientUnits="userSpaceOnUse"><stop offset="0" stop-color="#29abe2"/><stop offset="1" stop-color="#0747a6"/></radialGradient><g fill="none" fill-rule="evenodd" stroke-width="2" stroke="#FDBD29" stroke-opacity=".3"><circle cx="50" cy="50" r="50" stroke="#29ABE2"><animate attributeName="r" begin="0s" dur="3s" values="0;50" keyTimes="0;1" keySplines="0.1,0.2,0.3,1" calcMode="spline" repeatCount="indefinite"/><animate attributeName="stroke-opacity" begin="0s" dur="3s" values="0;.6;.3;0" repeatCount="indefinite"/></circle><circle cx="50" cy="50" r="30"><animate attributeName="r" begin="-1s" dur="3s" values="0;50" keyTimes="0;1" keySplines="0.1,0.2,0.3,1" calcMode="spline" repeatCount="indefinite"/><animate attributeName="stroke-opacity" begin="-1s" dur="3s" values="0;.7;.3;0" repeatCount="indefinite"/></circle></g><path fill="url(#a)" d="M25 0C15 0 6.9 8.1 6.9 18.1c0 12.4 16.2 30.6 16.9 31.4.6.7 1.8.7 2.4 0 .7-.8 16.9-19 16.9-31.4C43.1 8.1 35 0 25 0zm0 27.2c-5 0-9.1-4.1-9.1-9.1S20 9 25 9s9.1 4.1 9.1 9.1-4.1 9.1-9.1 9.1z" transform="translate(24 4)"/></svg>