<svg width="120px" height="120px" viewBox="0 0 120 120" version="1.1" xmlns="http://www.w3.org/2000/svg" xmlns:xlink="http://www.w3.org/1999/xlink">
  
  <radialGradient id="SVGID_1_" cx="5.1483" cy="10.0651" r="40.8549" gradientUnits="userSpaceOnUse">
    <stop  offset="0" style="stop-color:#29ABE2"/>
    <stop  offset="1" style="stop-color:#0747A6"/>
  </radialGradient>

  <g fill="none" fill-rule="evenodd" stroke-width="2" stroke="#FDBD29" stroke-opacity="0.3">
    <circle cx="50" cy="50" r="50" stroke="#29ABE2">
      <animate attributeName="r" begin="0s" dur="3s" values="0;50" keyTimes="0;1" keySplines="0.1,0.2,0.3,1" calcMode="spline" repeatCount="indefinite"></animate>
      <animate attributeName="stroke-opacity" begin="0s" dur="3s" values="0;.6;.3;0" repeatCount="indefinite"></animate>
    </circle>
    <circle cx="50" cy="50" r="30">
      <animate attributeName="r" begin="-1s" dur="3s" values="0;50" keyTimes="0;1" keySplines="0.1,0.2,0.3,1" calcMode="spline" repeatCount="indefinite"></animate>
      <animate attributeName="stroke-opacity" begin="-1s" dur="3s" values="0;.7;.3;0" repeatCount="indefinite"></animate>
    </circle>
  </g>
  
  <path fill="url(#SVGID_1_)" d="M25,0C15,0,6.9,8.1,6.9,18.1c0,12.4,16.2,30.6,16.9,31.4c0.6,0.7,1.8,0.7,2.4,0c0.7-0.8,16.9-19,16.9-31.4
  C43.1,8.1,35,0,25,0z M25,27.2c-5,0-9.1-4.1-9.1-9.1S20,9,25,9s9.1,4.1,9.1,9.1S30,27.2,25,27.2z" transform="translate(24,4)"/>

</svg>
