<?xml version="1.0" encoding="iso-8859-1"?>
<!-- Generator: Adobe Illustrator 21.0.0, SVG Export Plug-In . SVG Version: 6.00 Build 0)  -->
<svg xmlns="http://www.w3.org/2000/svg" xmlns:xlink="http://www.w3.org/1999/xlink" version="1.1" id="Capa_1" x="0px" y="0px" viewBox="0 0 512 512" style="enable-background:new 0 0 512 512;" xml:space="preserve" width="512" height="512">
<g>
	<path style="fill:#FFAB00;" d="M483.395,372.952H27.575v-44.28c0-12.005,9.732-21.737,21.737-21.737h412.346   c12.005,0,21.737,9.732,21.737,21.737V372.952z"/>
	<path style="fill:#FFD740;" d="M443.493,372.952H68.507V271.051c0-73.472,59.561-133.033,133.033-133.033H310.46   c73.472,0,133.033,59.561,133.033,133.033V372.952z"/>
	<path style="fill:#FFC400;" d="M310.475,138.017h-30.905c73.464,0,133.018,59.568,133.018,133.049v83.339h30.905v-83.339   C443.493,197.585,383.939,138.017,310.475,138.017z"/>
	<path style="fill:#FFC400;" d="M385.459,372.952H126.541v-81.425c0-10.801,8.756-19.556,19.556-19.556h219.806   c10.801,0,19.556,8.756,19.556,19.556V372.952z"/>
	<path style="fill:#FFAB00;" d="M365.905,271.971H335c10.8,0,19.554,8.757,19.554,19.559v81.422h30.905V291.53   C385.46,280.728,376.705,271.971,365.905,271.971z"/>
	<path style="fill:#FFD740;" d="M493.455,391.5H18.545C8.303,391.5,0,383.197,0,372.955v-0.004c0-10.242,8.303-18.545,18.545-18.545   h474.909c10.242,0,18.545,8.303,18.545,18.545v0.004C512,383.197,503.697,391.5,493.455,391.5z"/>
	<path style="fill:#FFC400;" d="M493.457,354.405h-30.905c10.241,0,18.543,8.304,18.543,18.547v0   c0,10.243-8.302,18.548-18.543,18.548h30.905c10.241,0,18.543-8.304,18.543-18.548v0C512,362.709,503.698,354.405,493.457,354.405z   "/>
	<path style="fill:#FFAB00;" d="M311.63,271.971H200.37v-143.08c0-4.634,3.757-8.391,8.391-8.391h94.478   c4.634,0,8.391,3.757,8.391,8.391V271.971z"/>
	<path style="fill:#FF9800;" d="M303.24,120.5h-30.905c4.634,0,8.39,3.757,8.39,8.392v143.08h30.905v-143.08   C311.63,124.257,307.874,120.5,303.24,120.5z"/>
	<ellipse style="fill:#B5FCFF;" cx="256" cy="271.456" rx="27.815" ry="27.821"/>
	<path style="fill:#71F6FC;" d="M256,243.635c-5.719,0-11.033,1.728-15.453,4.688c7.453,4.991,12.362,13.488,12.362,23.133   s-4.909,18.142-12.362,23.133c4.42,2.96,9.734,4.688,15.453,4.688c15.362,0,27.815-12.456,27.815-27.821   S271.362,243.635,256,243.635z"/>
</g>















</svg>
